<svg width="28" height="28" viewBox="0 0 28 28" fill="none" xmlns="http://www.w3.org/2000/svg">
<path fill-rule="evenodd" clip-rule="evenodd" d="M0.666748 14C0.666748 6.63599 6.63608 0.666656 14.0001 0.666656C21.3641 0.666656 27.3334 6.63599 27.3334 14C27.3334 21.364 21.3641 27.3333 14.0001 27.3333C6.63608 27.3333 0.666748 21.364 0.666748 14ZM24.6667 14C24.6667 8.11866 19.8814 3.33332 14.0001 3.33332C8.11875 3.33332 3.33341 8.11866 3.33341 14C3.33341 19.8813 8.11875 24.6667 14.0001 24.6667C19.8814 24.6667 24.6667 19.8813 24.6667 14ZM12.6667 19.3333H10.0001V8.66666H12.6667V19.3333ZM18.0001 19.3333H15.3334V8.66666H18.0001V19.3333Z" fill="white"/>
</svg>
