<svg width="32" height="32" viewBox="0 0 32 32" fill="none" xmlns="http://www.w3.org/2000/svg">
<path fill-rule="evenodd" clip-rule="evenodd" d="M2.66663 16C2.66663 8.63599 8.63596 2.66666 16 2.66666C23.364 2.66666 29.3333 8.63599 29.3333 16C29.3333 23.364 23.364 29.3333 16 29.3333C8.63596 29.3333 2.66663 23.364 2.66663 16ZM26.6666 16C26.6666 10.1187 21.8813 5.33332 16 5.33332C10.1186 5.33332 5.33329 10.1187 5.33329 16C5.33329 21.8813 10.1186 26.6667 16 26.6667C21.8813 26.6667 26.6666 21.8813 26.6666 16ZM21.3333 16L13.3333 22V9.99999L21.3333 16Z" fill="white"/>
</svg>
